<?xml version="1.0" encoding="UTF-8" standalone="no"?>
<!-- Created with Inkscape (http://www.inkscape.org/) -->

<svg
   width="45.155556mm"
   height="45.155563mm"
   viewBox="0 0 45.155556 45.155563"
   version="1.1"
   id="svg5"
   xml:space="preserve"
   xmlns:inkscape="http://www.inkscape.org/namespaces/inkscape"
   xmlns:sodipodi="http://sodipodi.sourceforge.net/DTD/sodipodi-0.dtd"
   xmlns="http://www.w3.org/2000/svg"
   xmlns:svg="http://www.w3.org/2000/svg"><sodipodi:namedview
     id="namedview7"
     pagecolor="#ffffff"
     bordercolor="#000000"
     borderopacity="0.25"
     inkscape:showpageshadow="2"
     inkscape:pageopacity="0.0"
     inkscape:pagecheckerboard="0"
     inkscape:deskcolor="#d1d1d1"
     inkscape:document-units="mm"
     showgrid="false" /><defs
     id="defs2" /><g
     inkscape:label="Layer 1"
     inkscape:groupmode="layer"
     id="layer1"
     transform="translate(-79.976755,-83.610487)"><g
       id="g362"
       transform="translate(-2.7089834,-42.311741)"><path
         id="path364"
         style="fill:#343e4b;stroke-width:0.352778"
         d="m 110.85225,134.88128 c -2.83532,-0.003 -5.62698,1.30178 -7.37267,4.12637 l -0.78962,1.27744 -1.27072,-0.18087 -1.27124,-0.18035 1.18494,0.51211 c 1.47592,0.63834 1.48038,0.63645 2.92023,-1.25987 4.82086,-6.34919 14.73797,-3.41418 15.68483,4.6421 l 0.22325,1.89704 1.27847,0.0863 c 4.88996,0.32932 7.02471,6.71344 3.39101,10.14046 -1.53733,1.44989 -2.22244,1.55391 -10.26294,1.55391 -4.32153,0 -6.83473,0.12992 -6.83473,0.35295 0,0.22401 2.70921,0.35244 7.42229,0.35244 h 7.42229 l 1.37666,-0.70228 c 5.3832,-2.74631 4.54051,-10.69225 -1.29088,-12.17291 l -1.66967,-0.42374 -0.56017,-2.2965 c -1.20054,-4.92448 -5.43739,-7.72075 -9.58133,-7.7246 z" /><path
         style="fill:#1b4864;stroke-width:0.352778"
         d="m 94.672909,162.76153 c -0.381922,-1.36409 -0.672902,-1.73432 -1.70056,-2.1637 l -1.239797,-0.51802 -1.716176,0.80381 -1.716175,0.80381 -1.287055,-1.28705 -1.287056,-1.28706 0.803813,-1.71617 0.803814,-1.71618 -0.518021,-1.2398 c -0.429382,-1.02765 -0.799611,-1.31863 -2.163703,-1.70056 l -1.645682,-0.46076 0.104297,-1.95024 0.104297,-1.95025 1.52276,-0.50606 c 1.146137,-0.38089 1.664605,-0.80351 2.096267,-1.70871 l 0.573506,-1.20266 -0.794075,-1.63445 -0.794075,-1.63444 1.307909,-1.33942 1.30791,-1.33942 1.344595,0.68596 c 2.460689,1.25535 4.313504,0.51737 4.939144,-1.96727 l 0.397874,-1.5801 h 1.90947 c 1.507782,0 1.951203,0.12987 2.107854,0.61736 0.700315,2.17933 1.045746,2.68052 2.171726,3.15098 l 1.21237,0.50657 1.60431,-0.75412 1.60431,-0.75411 1.38405,1.38404 1.38404,1.38404 -0.73241,1.20137 c -1.42515,2.3377 -0.75342,4.2556 1.78591,5.09903 l 1.71239,0.56876 v 1.7308 1.73081 l -1.32292,0.5301 c -2.91541,1.16822 -3.47449,2.36886 -2.25283,4.83805 l 0.74926,1.51438 -1.35003,1.35002 -1.35002,1.35003 -1.64131,-0.79741 -1.6413,-0.7974 -1.20265,0.5735 c -0.90521,0.43166 -1.327821,0.95013 -1.708718,2.09627 l -0.506059,1.52276 -1.950245,0.10429 -1.950246,0.1043 z m 4.184682,-0.95641 0.380613,-1.51155 1.747196,-0.73816 1.74719,-0.73817 1.00088,0.65989 c 1.28765,0.84897 1.97099,0.8361 2.77493,-0.0522 l 0.64868,-0.71679 -0.70695,-1.48807 -0.70696,-1.48808 0.58839,-1.55303 c 0.4998,-1.31917 0.82226,-1.63941 2.14143,-2.12671 l 1.55303,-0.57368 v -1.21463 -1.21464 l -1.57192,-0.58066 c -1.17788,-0.4351 -1.65403,-0.83557 -1.89945,-1.59754 -0.18015,-0.55929 -0.47085,-1.19898 -0.646,-1.42154 -0.20079,-0.25513 -0.029,-1.00055 0.46498,-2.01724 l 0.78345,-1.61259 -0.64868,-0.71678 c -0.80394,-0.88835 -1.48728,-0.90121 -2.77493,-0.0523 l -1.00088,0.6599 -1.7261,-0.72926 c -1.468225,-0.62031 -1.797096,-0.94322 -2.201385,-2.16152 -0.420504,-1.26716 -0.615552,-1.44435 -1.69199,-1.53706 l -1.216696,-0.10478 -0.54879,1.5159 c -0.442702,1.22285 -0.849872,1.66027 -2.106265,2.26277 l -1.557473,0.74688 -1.489235,-0.72353 -1.489234,-0.72352 -0.716786,0.64868 c -0.889387,0.80489 -0.901195,1.4873 -0.04812,2.78122 l 0.664014,1.00716 -0.754533,1.70012 c -0.657247,1.48091 -0.947849,1.75496 -2.253839,2.12549 l -1.499306,0.42537 v 1.31942 1.31941 l 1.499306,0.42538 c 1.306817,0.37076 1.596448,0.64424 2.255959,2.13018 l 0.756653,1.70481 -0.687726,1.13087 c -1.430691,2.35258 -0.190727,3.77055 2.257213,2.58125 l 1.524119,-0.74048 1.60013,0.81321 c 1.283244,0.65217 1.694081,1.09788 2.074537,2.25068 l 0.474407,1.43746 h 1.312766 1.312765 z m -4.925394,-5.76313 c -5.8022,-3.23057 -3.363624,-12.33551 3.276989,-12.23533 6.673204,0.10067 8.734474,8.99375 2.829524,12.20763 -2.221332,1.209 -3.970613,1.21694 -6.106513,0.0277 z m 5.562191,-0.86423 c 6.178242,-2.99084 2.113932,-12.49168 -4.296463,-10.04353 -4.564051,1.74303 -4.829505,8.08066 -0.42226,10.08132 1.916143,0.86983 2.859435,0.86227 4.718723,-0.0378 z"
         id="path366" /></g></g></svg>
